<svg width="63" height="61" viewBox="0 0 63 61" fill="none" xmlns="http://www.w3.org/2000/svg">
<path d="M29.5414 29.295C29.7914 28.295 29.9373 27.4825 30.2081 26.6908C32.9164 18.6908 37.2706 11.5658 42.229 4.79498C42.8123 4.00331 43.5415 3.25331 44.354 2.75331C44.7915 2.48248 45.6665 2.52415 46.1665 2.79498C46.5415 3.00331 46.8123 3.81581 46.729 4.27415C46.5831 5.14915 46.2706 6.04498 45.8331 6.83665C42.9581 12.0658 40.0623 17.2742 37.1248 22.4617C36.0206 24.3992 34.8539 26.3158 33.7081 28.2325C33.3331 28.8783 32.9164 29.5033 32.4789 30.0867C31.9998 30.7533 31.2706 31.1492 30.5414 30.7117C30.0623 30.42 29.5414 30.2117 29.5414 29.295Z" fill="#CD4631"/>
<path d="M59.0414 60.3166C58.0414 60.1499 56.8747 60.0249 55.7497 59.7749C51.3122 58.7749 46.8747 57.7749 42.4581 56.7332C41.4997 56.5041 40.5622 56.1082 39.7081 55.6499C38.5622 55.0457 38.1664 54.1916 38.3539 53.2541C38.5414 52.3166 39.2914 51.7333 40.6039 51.7124C41.4997 51.6916 42.4581 51.7124 43.3123 51.9207C48.9164 53.3374 54.5206 54.7957 60.1039 56.2749C60.7289 56.4416 61.3747 56.7332 61.8539 57.1499C63.0622 58.1707 62.6872 59.7749 61.1456 60.1707C60.5414 60.3166 59.8539 60.2541 59.0414 60.3166Z" fill="#CD4631"/>
<path d="M0.499699 4.46179C0.583033 3.48263 0.791366 2.50346 1.04137 1.54513C1.27053 0.69096 1.85387 0.0867934 2.79137 0.00346005C3.58303 -0.05904 4.4372 0.732628 4.5622 1.77429C4.72886 3.17013 4.8747 4.5868 4.8122 5.98263C4.6247 10.191 4.35386 14.4201 4.0622 18.6285C3.95803 20.0243 3.77053 21.4201 3.54136 22.816C3.45803 23.2951 3.29136 23.7951 3.02053 24.1701C2.29137 25.2326 0.958033 25.1493 0.4372 24.0035C0.145533 23.3576 0.020534 22.566 0.020534 21.8576C-0.0836326 19.5243 0.228866 7.92013 0.499699 4.46179Z" fill="#CD4631"/>
</svg>
