<svg width="181" height="110" viewBox="0 0 181 110" fill="none" xmlns="http://www.w3.org/2000/svg">
<path d="M167.024 44.5132C161.428 46.0534 156.722 47.4764 151.957 48.6264C143.883 50.6097 135.822 52.209 127.401 50.6638C118.859 49.0877 113.091 44.22 110.977 35.984C109.687 30.9251 109.773 25.529 109.434 20.2825C109.312 18.2305 109.766 16.1104 110.033 13.0395C106.664 16.1363 104.055 18.6101 101.346 20.9722C94.7498 26.7723 88.385 32.8464 81.4376 38.1699C71.9543 45.5127 62.7551 43.9841 55.7068 34.1888C52.9457 30.3458 51.0975 25.7896 48.874 21.5246C48.213 20.2381 47.7445 18.8716 47.0748 17.2819C43.2504 24.6917 39.7206 31.7896 35.939 38.6943C27.1018 54.8019 13.448 50.6754 5.56212 40.6236C3.45251 37.9357 1.96204 34.6746 0.481055 31.545C-0.438707 29.4185 -0.134514 27.0451 2.22477 26.0557C4.35129 25.1359 5.96145 26.5785 7.12507 28.4232C8.29898 30.2275 9.36127 32.1324 10.7078 33.7657C12.2854 35.673 13.9035 37.5906 15.8264 39.1559C21.2427 43.5469 25.7315 43.1435 29.8408 37.4834C32.7497 33.4951 35.0847 29.0595 37.4395 24.715C39.6312 20.6728 41.6416 16.4985 43.652 12.3241C44.713 10.1867 45.8548 8.0698 48.5133 7.93068C51.566 7.76308 52.7573 10.1738 53.8686 12.3922C55.3005 15.2083 56.297 18.2144 57.881 20.9403C59.8353 24.4056 61.8808 27.8512 64.3221 30.9246C67.6476 35.0836 70.6765 35.6839 75.2471 32.9364C79.615 30.3091 83.9338 27.3684 87.8299 24.0619C96.1399 16.9358 104.168 9.56593 112.207 2.15566C114.115 0.406198 115.979 -0.666372 118.399 0.466711C120.709 1.52853 120.971 3.7025 120.728 6.00547C120.284 10.1063 119.659 14.2468 119.427 18.3587C119.238 21.9656 119.11 25.6738 119.578 29.2332C120.807 38.7485 125.436 42.8529 134.963 43.605C142.125 44.1843 149.172 43.3583 156.103 41.6425C161.101 40.4229 166.009 38.8795 170.927 37.4676C173.528 36.7117 176.22 35.9361 178.219 38.5528C180.077 41.0475 178.993 43.6093 177.81 46.0594C177.289 47.0878 176.618 48.0346 175.987 48.9916C174.684 50.8955 173.483 52.911 171.999 54.6827C161.053 67.9306 162.858 81.5919 170.757 95.3021C172.221 97.8253 174.485 99.9075 176.455 102.13C177.42 103.236 178.75 104.091 179.563 105.287C180.166 106.129 180.684 107.637 180.287 108.353C179.868 109.149 178.371 109.627 177.42 109.815C175.346 110.189 172.905 109.309 171.314 108.129C168.172 105.78 165.061 103.138 162.762 100.014C157.64 93.1184 154.909 85.1119 153.594 76.6068C152.476 69.3557 154.538 62.7865 158.356 56.7511C160.901 52.842 163.728 49.1767 167.024 44.5132Z" fill="black"/>
</svg>
