<svg width="146" height="146" viewBox="0 0 146 146" fill="none" xmlns="http://www.w3.org/2000/svg">
<path d="M89.2095 47.5386C88.5505 49.9465 88.0435 51.9997 87.4225 54.0148C86.3833 57.4367 85.2046 60.7698 82.784 63.5453C80.3253 66.3589 77.2583 67.4235 73.7477 66.3969C71.5932 65.7632 69.6161 64.5466 67.601 63.52C66.8152 63.1144 66.1308 62.4808 65.0536 61.7077C65.4591 63.6341 65.8013 65.1422 66.0801 66.6631C66.7772 70.3764 67.6263 74.0645 68.0699 77.8032C68.7036 82.9233 66.1182 85.9903 60.9473 86.4466C58.9195 86.624 56.8284 86.3072 54.7626 86.1931C54.1416 86.1551 53.5332 86.0283 52.7982 85.927C54.6992 88.9686 56.5496 91.8329 58.2732 94.7478C62.2907 101.554 57.7662 105.698 52.3166 106.408C50.8591 106.598 49.3256 106.433 47.8428 106.293C46.8542 106.167 46.0431 105.533 46.1952 104.443C46.322 103.455 47.2091 103.176 48.147 103.15C49.0721 103.112 50.01 103.138 50.9098 102.998C51.9617 102.834 53.0263 102.656 54.0275 102.289C56.8411 101.249 57.6775 99.5004 56.4862 96.7376C55.6497 94.7858 54.5218 92.9481 53.4319 91.1231C52.418 89.4249 51.3154 87.7646 50.2128 86.1044C49.6551 85.2426 49.1228 84.3554 49.6551 83.3415C50.2635 82.1756 51.4167 82.2643 52.4813 82.3403C53.8374 82.429 55.1681 82.7205 56.5242 82.7332C58.2352 82.7712 59.9588 82.7712 61.6317 82.5431C63.9003 82.2263 64.7874 81.2377 64.7747 78.9438C64.7621 76.7513 64.6227 74.508 64.2551 72.3408C63.444 67.7023 62.4808 63.1144 61.5049 58.5139C61.2768 57.424 61.2895 56.4988 62.24 55.8525C63.1398 55.2314 64.0016 55.6117 64.8001 56.2073C66.2195 57.2719 67.6136 58.4125 69.0838 59.4011C70.3765 60.2629 71.7199 61.1247 73.1393 61.733C76.9287 63.3679 79.4635 62.5568 81.8334 59.1983C83.6204 56.6762 84.8624 53.888 85.7496 50.9478C86.3959 48.8313 86.9029 46.6768 87.4605 44.5476C87.752 43.4196 88.0562 42.2537 89.463 42.0889C90.7937 41.9495 91.5034 42.9127 92.1498 43.8886C92.4159 44.3068 92.6187 44.763 92.8341 45.2066C93.2524 46.1064 93.734 46.9936 94.0635 47.9314C96.5602 54.8893 102.01 57.2212 108.816 57.3099C110.07 57.3226 111.338 56.9424 112.592 56.7016C113.213 56.5875 113.822 56.2834 114.443 56.2453C114.886 56.2073 115.558 56.3467 115.735 56.6509C115.938 56.9804 115.786 57.6394 115.647 58.0323C115.33 58.8815 114.468 59.5912 113.682 59.9207C112.123 60.567 110.463 61.1374 108.803 61.3021C105.128 61.6823 101.566 60.9346 98.1317 59.5532C95.2041 58.3745 93.227 56.1693 91.8329 53.4318C90.9458 51.6321 90.2107 49.7818 89.2095 47.5386Z" fill="#81ADC8"/>
</svg>
