<svg width="162" height="150" viewBox="0 0 162 150" fill="none" xmlns="http://www.w3.org/2000/svg">
<path d="M61.894 137.054C63.4261 131.456 64.6046 126.683 66.0483 121.999C68.4642 114.044 71.2043 106.295 76.8317 99.8427C82.5474 93.302 89.6774 90.8271 97.8386 93.2136C102.847 94.6867 107.443 97.5152 112.128 99.9016C113.955 100.844 115.546 102.318 118.05 104.115C117.107 99.6365 116.312 96.1304 115.664 92.5949C114.043 83.9623 112.069 75.3886 111.038 66.6971C109.565 54.7941 115.575 47.6641 127.596 46.6035C132.31 46.191 137.171 46.9276 141.974 47.1927C143.418 47.2811 144.832 47.5757 146.541 47.8114C142.121 40.7404 137.82 34.0818 133.813 27.3054C124.473 11.4838 134.991 1.84951 147.66 0.199595C151.048 -0.24235 154.613 0.140675 158.061 0.464764C160.359 0.759394 162.244 2.23253 161.891 4.76633C161.596 7.06443 159.534 7.71261 157.353 7.77153C155.203 7.85992 153.022 7.80099 150.931 8.12508C148.485 8.5081 146.01 8.92058 143.683 9.775C137.142 12.191 135.197 16.2568 137.967 22.6797C139.911 27.217 142.534 31.4891 145.067 35.7317C147.424 39.6797 149.988 43.5394 152.551 47.399C153.847 49.4024 155.085 51.4648 153.847 53.8219C152.433 56.5324 149.752 56.3262 147.277 56.1494C144.125 55.9432 141.031 55.2655 137.879 55.2361C133.901 55.1477 129.894 55.1477 126.005 55.678C120.731 56.4146 118.669 58.7127 118.698 64.0454C118.728 69.1425 119.052 74.3574 119.906 79.3955C121.792 90.1789 124.031 100.844 126.3 111.539C126.83 114.073 126.801 116.224 124.591 117.727C122.499 119.17 120.496 118.286 118.639 116.902C115.34 114.427 112.099 111.775 108.681 109.477C105.676 107.474 102.553 105.47 99.2528 104.056C90.4435 100.255 84.5509 102.141 79.0414 109.948C74.8871 115.812 71.9998 122.293 69.9374 129.129C68.4348 134.049 67.2563 139.058 65.9599 144.007C65.2823 146.63 64.5751 149.34 61.3048 149.723C58.2112 150.047 56.5613 147.808 55.0587 145.539C54.4399 144.567 53.9685 143.507 53.4677 142.475C52.4954 140.383 51.3758 138.321 50.6098 136.141C44.8056 119.966 32.1366 114.545 16.3151 114.338C13.3983 114.309 10.452 115.193 7.5352 115.753C6.09152 116.018 4.67731 116.725 3.23363 116.813C2.20244 116.902 0.640908 116.578 0.228433 115.87C-0.242975 115.104 0.110578 113.572 0.434671 112.659C1.17123 110.685 3.17472 109.035 5.00141 108.269C8.62533 106.766 12.4849 105.441 16.3446 105.058C24.8888 104.174 33.1678 105.912 41.1522 109.123C47.9581 111.864 52.5543 116.99 55.7952 123.354C57.8576 127.538 59.5665 131.839 61.894 137.054Z" fill="black"/>
</svg>
