<svg width="147" height="152" viewBox="0 0 147 152" fill="none" xmlns="http://www.w3.org/2000/svg">
<path d="M51.7269 3.90767C53.0823 -1.67489 61.1937 -1.12417 61.7821 4.59035L65.3777 39.5061C65.7762 43.3762 70.1793 45.4011 73.3769 43.1848L109.61 18.0708C114.151 14.9235 119.764 20.2157 116.89 24.9337L99.3354 53.7458C97.5337 56.703 99.1306 60.5582 102.496 61.3752L142.418 71.0684C147.326 72.2601 147.718 79.0897 142.979 80.8354L101.746 96.0219C98.5758 97.1895 97.3891 101.056 99.3585 103.801L114.792 125.312C118.039 129.838 112.734 135.558 107.976 132.659L80.0233 115.628C77.0661 113.827 73.2109 115.423 72.3939 118.788L65.4577 147.356C64.1122 152.897 56.0769 152.41 55.4106 146.747L50.4567 104.638C49.9842 100.622 45.2568 98.7176 42.1322 101.285L15.0982 123.498C10.5435 127.241 4.31703 121.577 7.61213 116.689L32.8214 79.2935C35.1803 75.7942 32.524 71.1051 28.3099 71.3293L5.39072 72.5488C-0.712864 72.8735 -2.13948 64.1536 3.74936 62.5163L23.282 57.0856C26.8773 56.086 28.2255 51.6964 25.8112 48.851L8.52845 28.4821C4.77227 24.0552 10.1298 17.7865 15.0878 20.8073L37.4531 34.4337C40.4102 36.2354 44.2654 34.6385 45.0824 31.2735L51.7269 3.90767Z" fill="black"/>
</svg>
