<svg width="20" height="20" viewBox="0 0 20 20" fill="none" xmlns="http://www.w3.org/2000/svg">
<path d="M5.28175 12.3707C5.37942 11.562 5.71109 11.1092 6.33611 10.6451C7.2304 10.0165 8.34749 10.3721 8.34749 10.3721V8.26259C8.61907 8.25565 8.89075 8.27175 9.15937 8.31069V11.0254C9.15937 11.0254 8.04261 10.6698 7.14833 11.2987C6.52365 11.7626 6.1913 12.2157 6.09397 13.0244C6.09092 13.4635 6.17333 14.0375 6.55282 14.5338C6.45899 14.4857 6.36335 14.4309 6.26591 14.3693C5.42996 13.808 5.27769 12.9658 5.28175 12.3707ZM13.7719 4.36217C13.1567 3.68805 12.9241 3.00742 12.84 2.5293H13.6138C13.6138 2.5293 13.4595 3.78296 14.5841 5.01581L14.5997 5.03239C14.2966 4.84174 14.0187 4.6167 13.7719 4.36217ZM17.4999 6.27337V8.93346C17.4999 8.93346 16.5124 8.89478 15.7816 8.70886C14.7611 8.44883 14.1052 8.05002 14.1052 8.05002C14.1052 8.05002 13.6522 7.76561 13.6155 7.74578V13.2389C13.6155 13.5447 13.5318 14.3086 13.2764 14.9456C12.943 15.779 12.4286 16.3261 12.334 16.4379C12.334 16.4379 11.7083 17.1773 10.6044 17.6753C9.6094 18.1245 8.7358 18.1131 8.47467 18.1245C8.47467 18.1245 6.96452 18.1843 5.60562 17.3012C5.31177 17.1065 5.03747 16.8861 4.78629 16.6426L4.79307 16.6475C6.1523 17.5306 7.66211 17.4708 7.66211 17.4708C7.92358 17.4595 8.79718 17.4708 9.79185 17.0216C10.8947 16.5237 11.5214 15.7842 11.5214 15.7842C11.615 15.6724 12.1318 15.1254 12.4639 14.2917C12.7185 13.6549 12.803 12.8908 12.803 12.5849V7.09246C12.8396 7.11262 13.2924 7.39702 13.2924 7.39702C13.2924 7.39702 13.9486 7.79616 14.969 8.05587C15.7002 8.24179 16.6874 8.28047 16.6874 8.28047V6.19602C17.0252 6.27175 17.3131 6.29223 17.4999 6.27337Z" fill="#EE1D52"/>
<path d="M16.6878 6.19602V8.27982C16.6878 8.27982 15.7006 8.24114 14.9694 8.05522C13.949 7.79519 13.2928 7.39637 13.2928 7.39637C13.2928 7.39637 12.84 7.11196 12.8034 7.09181V12.5856C12.8034 12.8914 12.7196 13.6556 12.4643 14.2923C12.1309 15.126 11.6164 15.6731 11.5218 15.7849C11.5218 15.7849 10.8958 16.5243 9.79226 17.0223C8.79759 17.4715 7.92399 17.4601 7.66252 17.4715C7.66252 17.4715 6.15271 17.5313 4.79348 16.6482L4.78669 16.6433C4.64319 16.5043 4.50811 16.3576 4.38211 16.2038C3.94836 15.675 3.68249 15.0496 3.61568 14.8712C3.61556 14.8704 3.61556 14.8697 3.61568 14.8689C3.50817 14.5588 3.28231 13.8142 3.31317 13.0929C3.36777 11.8204 3.81542 11.0394 3.93378 10.8437C4.24724 10.3101 4.65493 9.83269 5.13871 9.43271C5.56562 9.08757 6.0495 8.81295 6.57052 8.62013C7.13376 8.39373 7.73688 8.27238 8.34756 8.26259V10.3721C8.34756 10.3721 7.23047 10.0178 6.33652 10.6451C5.7115 11.1092 5.37983 11.562 5.28216 12.3707C5.27809 12.9658 5.43036 13.808 6.26564 14.3697C6.36308 14.4314 6.45872 14.4863 6.55254 14.5341C6.69847 14.7238 6.87608 14.8891 7.0782 15.0233C7.89414 15.5398 8.57783 15.5759 9.45211 15.2404C10.0351 15.0162 10.4739 14.5107 10.6774 13.9507C10.8052 13.601 10.8035 13.2489 10.8035 12.8849V2.5293H12.8383C12.9224 3.00742 13.1551 3.68805 13.7703 4.36217C14.017 4.6167 14.295 4.84174 14.5981 5.03239C14.6876 5.12503 15.1454 5.583 15.7331 5.86416C16.037 6.00949 16.3574 6.12084 16.6878 6.19602V6.19602Z" fill="black"/>
<path d="M2.80579 14.2231V14.2248L2.85628 14.3616C2.85048 14.3457 2.83171 14.2973 2.80579 14.2231Z" fill="#69C9D0"/>
<path d="M6.57051 8.6199C6.0495 8.81272 5.56561 9.08734 5.1387 9.43249C4.65477 9.83337 4.24718 10.3118 3.93411 10.8464C3.81576 11.0414 3.3681 11.8231 3.3135 13.0956C3.28264 13.8169 3.5085 14.5615 3.61601 14.8716C3.61589 14.8724 3.61589 14.8731 3.61601 14.8739C3.68383 15.0507 3.94869 15.6761 4.38244 16.2065C4.50844 16.3603 4.64352 16.507 4.78702 16.646C4.32723 16.3412 3.91716 15.9727 3.57023 15.5526C3.14021 15.0283 2.87501 14.4094 2.80583 14.2268C2.80574 14.2255 2.80574 14.2242 2.80583 14.2229V14.2206C2.69798 13.9108 2.47144 13.1658 2.50298 12.4436C2.55758 11.1711 3.00523 10.39 3.12359 10.1944C3.43657 9.6597 3.84417 9.18128 4.32818 8.78047C4.755 8.4352 5.23891 8.16057 5.75999 7.96788C6.08501 7.83863 6.42361 7.74328 6.76992 7.68348C7.29183 7.59616 7.82487 7.58859 8.34925 7.66105V8.26236C7.738 8.27195 7.13428 8.3933 6.57051 8.6199Z" fill="#69C9D0"/>
<path d="M12.84 2.52897H10.8052V12.8849C10.8052 13.2489 10.8052 13.6 10.679 13.9507C10.4735 14.5104 10.0364 15.0158 9.45375 15.2401C8.57913 15.5768 7.89544 15.5395 7.07983 15.023C6.87736 14.8894 6.6993 14.7246 6.55283 14.5354C7.2477 14.8907 7.86967 14.8845 8.64017 14.5881C9.22246 14.3638 9.66028 13.8584 9.86511 13.2984C9.9933 12.9486 9.99161 12.5966 9.99161 12.2329V1.875H12.8013C12.8013 1.875 12.7698 2.13243 12.84 2.52897ZM16.6877 5.6194V6.19569C16.3579 6.12039 16.0381 6.00904 15.7348 5.86383C15.1471 5.58267 14.6892 5.1247 14.5997 5.03206C14.7036 5.09744 14.8114 5.15691 14.9226 5.21018C15.6371 5.55212 16.3408 5.65418 16.6877 5.6194Z" fill="#69C9D0"/>
</svg>
