<svg width="80" height="22" viewBox="0 0 80 22" fill="none" xmlns="http://www.w3.org/2000/svg">
<path d="M10.7735 0C8.64271 0 6.55975 0.645131 4.78804 1.8538C3.0164 3.06253 1.63553 4.78051 0.820064 6.79046C0.00465698 8.80048 -0.20869 11.0122 0.207036 13.146C0.622699 15.2798 1.64876 17.2398 3.15548 18.7782C4.66219 20.3165 6.58188 21.3642 8.67173 21.7886C10.7616 22.2131 12.9278 21.9953 14.8963 21.1627C16.865 20.3301 18.5476 18.9202 19.7314 17.1113C20.9152 15.3023 21.547 13.1756 21.547 11C21.547 8.0826 20.412 5.28473 18.3916 3.22185C16.3711 1.1589 13.6309 0 10.7735 0ZM15.7174 15.8635C15.6716 15.9413 15.6111 16.0089 15.5394 16.0626C15.4677 16.1162 15.3863 16.1547 15.2999 16.176C15.2135 16.1972 15.1238 16.2007 15.0361 16.1862C14.9484 16.1718 14.8643 16.1397 14.7888 16.0918C12.261 14.5116 9.07968 14.1604 5.33088 15.0295C5.24558 15.0503 5.15714 15.0536 5.07059 15.0392C4.9841 15.0248 4.90118 14.9929 4.82684 14.9456C4.75245 14.8982 4.68801 14.8363 4.63725 14.7633C4.58648 14.6903 4.5505 14.6077 4.53126 14.5204C4.51077 14.4328 4.50751 14.3419 4.52148 14.2529C4.53552 14.164 4.56655 14.0788 4.61287 14.0021C4.65918 13.9254 4.71992 13.8589 4.79143 13.8062C4.863 13.7535 4.94404 13.7158 5.02991 13.6951C9.13126 12.7382 12.6565 13.1508 15.4939 14.9242C15.6453 15.0187 15.7539 15.1706 15.7957 15.3467C15.8377 15.5228 15.8095 15.7086 15.7174 15.8635ZM17.033 12.8699C16.9129 13.0586 16.7263 13.193 16.5119 13.2453C16.2974 13.2975 16.0716 13.2637 15.8808 13.1508C12.6116 11.2888 8.7522 10.8279 5.15031 11.8691C5.03825 11.9329 4.91358 11.9703 4.78554 11.9785C4.65743 11.9867 4.52919 11.9655 4.41017 11.9165C4.29115 11.8675 4.18442 11.792 4.09774 11.6954C4.01106 11.5988 3.94663 11.4836 3.90921 11.3583C3.87179 11.2329 3.86233 11.1007 3.88151 10.9711C3.90068 10.8415 3.948 10.7181 4.02002 10.6096C4.09203 10.5012 4.18693 10.4106 4.29767 10.3444C4.40848 10.2783 4.53233 10.2383 4.66019 10.2275C6.67063 9.63655 8.77645 9.46181 10.854 9.71363C12.9315 9.96538 14.9388 10.6385 16.7579 11.6936C16.9427 11.8162 17.0742 12.0067 17.1254 12.2256C17.1767 12.4446 17.1436 12.6752 17.033 12.8699ZM17.1448 9.75339C13.7055 7.64642 7.95334 7.45328 4.63443 8.48043C4.37903 8.55964 4.10325 8.53194 3.86784 8.40349C3.63244 8.27509 3.45663 8.05645 3.3791 7.79567C3.30157 7.53494 3.32865 7.25337 3.45444 7.01298C3.58016 6.77265 3.79433 6.59313 4.04973 6.51399C7.85876 5.3376 14.1784 5.56585 18.1766 7.98003C18.3821 8.13024 18.5247 8.35391 18.5761 8.60663C18.6275 8.85929 18.5838 9.12246 18.4537 9.34381C18.3237 9.5651 18.1168 9.72828 17.8743 9.8009C17.6317 9.87359 17.3713 9.85035 17.1448 9.73584V9.75339Z" fill="#1ED760"/>
<path d="M32.788 9.25783C30.7241 8.74865 30.3543 8.37999 30.3543 7.66011C30.3543 6.94023 30.9992 6.48372 31.9626 6.48372C32.9948 6.52323 33.9863 6.90892 34.7823 7.5811C34.7986 7.58956 34.8162 7.59395 34.8343 7.59395C34.8519 7.59395 34.8701 7.58956 34.8857 7.5811C34.9196 7.57445 34.9503 7.5558 34.9716 7.52843L35.9863 6.07111C36.0064 6.04483 36.0177 6.01236 36.0177 5.97893C36.0177 5.94549 36.0064 5.91302 35.9863 5.88674C34.8676 4.95178 33.4592 4.45382 32.0139 4.4821C29.7871 4.4821 28.2309 5.85163 28.2309 7.80058C28.2309 9.89871 29.5721 10.6449 31.8936 11.2156C33.871 11.6809 34.2063 12.0935 34.2063 12.7695C34.2063 13.4454 33.5269 14.016 32.4865 14.016C31.2568 14.0074 30.0785 13.5098 29.2023 12.629C29.1691 12.6176 29.1328 12.6176 29.0989 12.629C29.0638 12.6376 29.0312 12.6558 29.0043 12.6817L27.8523 14.0424C27.8285 14.0684 27.8147 14.103 27.8147 14.1389C27.8147 14.1749 27.8285 14.2094 27.8523 14.2355C29.1039 15.3802 30.7291 16.0064 32.4094 15.9913C34.808 15.9913 36.3649 14.6481 36.3649 12.5763C36.3304 10.8468 35.2981 9.88115 32.788 9.25783Z" fill="black"/>
<path d="M41.7645 7.17633C41.2675 7.17317 40.7768 7.28633 40.3299 7.50697C39.8824 7.72761 39.4907 8.04998 39.1848 8.44929V7.4836C39.1829 7.4479 39.1673 7.4144 39.1416 7.38993C39.1159 7.36547 39.082 7.35185 39.0476 7.35191H37.1817C37.1466 7.35185 37.1128 7.36547 37.0871 7.38993C37.0614 7.4144 37.0463 7.4479 37.0438 7.4836V18.1939C37.0438 18.2312 37.0582 18.2669 37.0839 18.2933C37.1103 18.3196 37.1447 18.3344 37.1817 18.3344H39.03C39.0664 18.3344 39.1015 18.3196 39.1272 18.2933C39.1528 18.2669 39.1679 18.2312 39.1679 18.1939V14.8316C39.4838 15.2141 39.8793 15.5204 40.3255 15.7284C40.7711 15.9363 41.2569 16.0408 41.747 16.0343C43.6818 16.0343 45.6423 14.5156 45.6423 11.6009C45.6423 8.68633 43.6987 7.17633 41.7645 7.17633ZM43.4837 11.5658C43.5163 11.8798 43.4843 12.1971 43.3903 12.4978C43.2963 12.7985 43.1421 13.076 42.9378 13.3128C42.7329 13.5495 42.4828 13.7404 42.2026 13.8735C41.9219 14.0064 41.6179 14.0786 41.3089 14.0854C40.9986 14.0756 40.694 14.0018 40.4126 13.8685C40.1312 13.7351 39.8793 13.545 39.6724 13.3095C39.465 13.0741 39.3064 12.7982 39.2061 12.4985C39.1065 12.1988 39.067 11.8815 39.0902 11.5658C39.0682 11.2508 39.1084 10.9345 39.2093 10.6358C39.3095 10.3372 39.4681 10.0623 39.6756 9.8278C39.8824 9.59335 40.1343 9.40402 40.4145 9.27117C40.6953 9.13839 40.9993 9.06486 41.3089 9.05505C41.6216 9.06054 41.93 9.13251 42.2139 9.26639C42.4978 9.40027 42.7517 9.59309 42.9585 9.83258C43.166 10.0721 43.322 10.3531 43.4167 10.6575C43.5113 10.962 43.5433 11.2832 43.5094 11.6009L43.4837 11.5658Z" fill="black"/>
<path d="M50.6806 7.17683C49.8213 7.19252 48.9858 7.46764 48.2795 7.96746C47.5731 8.46735 47.0278 9.16955 46.712 9.98555C46.3961 10.8015 46.324 11.6947 46.5045 12.5525C46.6856 13.4103 47.1112 14.1942 47.7273 14.8054C48.344 15.4166 49.1243 15.8277 49.9692 15.9867C50.8141 16.1459 51.6865 16.0459 52.4762 15.6994C53.2653 15.353 53.9372 14.7755 54.4054 14.0399C54.8742 13.3044 55.1186 12.4437 55.1086 11.5663C55.1004 10.9811 54.9801 10.4031 54.7532 9.86554C54.5257 9.32802 54.1973 8.84149 53.7861 8.43378C53.375 8.02601 52.8886 7.70512 52.3559 7.48945C51.8231 7.27379 51.2534 7.16754 50.6806 7.17683ZM50.6806 14.1386C50.3628 14.1343 50.0494 14.0645 49.7586 13.9333C49.4684 13.8022 49.2064 13.6125 48.9896 13.3754C48.7727 13.1385 48.6054 12.8591 48.497 12.5543C48.3885 12.2494 48.3415 11.9253 48.3591 11.6014C48.339 11.282 48.3835 10.9618 48.4888 10.6606C48.5947 10.3594 48.7602 10.0834 48.9745 9.84986C49.1889 9.61624 49.4477 9.42995 49.7348 9.30239C50.0225 9.17484 50.3327 9.10874 50.6461 9.10822C50.9645 9.11022 51.2797 9.17794 51.5718 9.30743C51.8645 9.43685 52.1284 9.62535 52.3477 9.86148C52.5665 10.0977 52.7369 10.3767 52.8479 10.6817C52.9588 10.9867 53.0083 11.3115 52.9933 11.6365C53.0133 11.9586 52.9682 12.2814 52.861 12.5849C52.7539 12.8884 52.5865 13.1661 52.3697 13.4007C52.1522 13.6354 51.8908 13.822 51.6 13.9489C51.3092 14.0759 50.9964 14.1404 50.6806 14.1386Z" fill="black"/>
<path d="M60.4311 7.35282H58.3935V5.22836C58.3935 5.19259 58.3803 5.15812 58.3559 5.13198C58.3321 5.1059 58.2995 5.09015 58.2644 5.08789H56.4155C56.3791 5.08789 56.344 5.10267 56.3183 5.12901C56.2926 5.15535 56.2782 5.19111 56.2782 5.22836V7.35282H55.3669C55.35 7.35282 55.3331 7.35624 55.3174 7.36289C55.3017 7.36947 55.2873 7.37922 55.2754 7.39142C55.2635 7.40362 55.2541 7.41815 55.2478 7.43416C55.2409 7.4501 55.2378 7.46727 55.2378 7.48451V9.10863C55.2378 9.14439 55.2509 9.17886 55.2748 9.20501C55.2992 9.23109 55.3318 9.24683 55.3669 9.24909H56.2268V13.4454C56.2268 15.1398 57.0861 16.0001 58.6856 16.0001C59.2872 16.0175 59.882 15.8656 60.4054 15.5612C60.4261 15.551 60.4442 15.5348 60.4561 15.5145C60.4687 15.4942 60.4743 15.4708 60.4743 15.447V13.9019C60.4743 13.878 60.4693 13.8544 60.4586 13.833C60.448 13.8116 60.4329 13.7931 60.4141 13.779C60.3935 13.7658 60.3696 13.7588 60.3452 13.7588C60.3208 13.7588 60.297 13.7658 60.2763 13.779C59.9403 13.9527 59.5693 14.0429 59.1926 14.0424C58.5997 14.0424 58.3333 13.7702 58.3333 13.1645V9.24909H60.3709C60.4072 9.24909 60.4424 9.23431 60.4681 9.20798C60.4938 9.18164 60.5082 9.14588 60.5082 9.10863V7.48451C60.5094 7.45727 60.5025 7.43035 60.4887 7.40692C60.4749 7.38355 60.4549 7.36476 60.4311 7.35282Z" fill="black"/>
<path d="M67.5239 7.36136V7.09799C67.5239 6.3255 67.8078 5.98312 68.4527 5.98312C68.8112 5.98731 69.1666 6.05567 69.5019 6.18504C69.5207 6.19375 69.5414 6.19827 69.5621 6.19827C69.5827 6.19827 69.6034 6.19375 69.6222 6.18504C69.6385 6.17142 69.6523 6.15399 69.6611 6.13417C69.6699 6.11435 69.6742 6.09273 69.6736 6.07091V4.46434C69.6749 4.43355 69.6667 4.40315 69.6498 4.37778C69.6323 4.35241 69.6078 4.3335 69.579 4.32388C69.0769 4.18903 68.5586 4.1299 68.0403 4.1483C66.3205 4.1483 65.4606 5.13155 65.4606 6.98393V7.3877H64.6007C64.5668 7.3877 64.5336 7.40158 64.5098 7.4263C64.4853 7.45103 64.4716 7.48446 64.4716 7.51939V9.15229C64.4716 9.18805 64.4847 9.22252 64.5092 9.24866C64.533 9.27474 64.5656 9.2905 64.6007 9.29275H65.4606V15.7716C65.4606 15.8065 65.4744 15.8401 65.4982 15.8647C65.5226 15.8894 65.5552 15.9033 65.5897 15.9033H67.4035C67.4386 15.9034 67.4725 15.8898 67.4982 15.8653C67.5239 15.8408 67.5389 15.8073 67.5414 15.7716V9.24886H69.2612L71.9092 15.719C71.6084 16.4037 71.3076 16.5354 70.9033 16.5354C70.5467 16.5255 70.1982 16.426 69.8886 16.2457C69.871 16.2371 69.8522 16.2327 69.8328 16.2327C69.8134 16.2327 69.7946 16.2371 69.777 16.2457C69.7595 16.2508 69.7438 16.2597 69.7307 16.2718C69.7169 16.284 69.7062 16.2991 69.6993 16.3159L69.1233 17.7117C69.1108 17.7435 69.1102 17.7789 69.1208 17.8112C69.1321 17.8435 69.154 17.8706 69.1835 17.8873C69.7846 18.2392 70.4683 18.4183 71.1609 18.4053C72.5197 18.4053 73.2762 17.7556 73.9468 16.0087L77.1539 7.54572C77.1646 7.52545 77.1702 7.50286 77.1702 7.47988C77.1702 7.45696 77.1646 7.43437 77.1539 7.41404C77.1408 7.397 77.1238 7.38338 77.1044 7.37427C77.085 7.36511 77.0637 7.36072 77.0424 7.36136H75.065C75.0374 7.36317 75.0111 7.37221 74.9885 7.38764C74.9659 7.403 74.9478 7.42424 74.9359 7.44915L72.9666 13.1994L70.8431 7.44915C70.8325 7.42301 70.8149 7.40061 70.7918 7.38499C70.7686 7.3693 70.7416 7.36111 70.714 7.36136H67.5239Z" fill="black"/>
<path d="M63.4142 7.35352H61.5659C61.49 7.35352 61.428 7.41639 61.428 7.49398V15.7286C61.428 15.8062 61.49 15.8691 61.5659 15.8691H63.4142C63.4906 15.8691 63.552 15.8062 63.552 15.7286V7.49398C63.552 7.41639 63.4906 7.35352 63.4142 7.35352Z" fill="black"/>
<path d="M62.4941 3.59573C62.2303 3.59399 61.9714 3.67235 61.7514 3.82076C61.5308 3.96923 61.3591 4.18115 61.2569 4.42961C61.1548 4.67814 61.1272 4.95197 61.1773 5.2165C61.2281 5.48103 61.3541 5.72433 61.5402 5.91553C61.7264 6.10667 61.9639 6.23713 62.2221 6.29038C62.481 6.34357 62.7492 6.31717 62.9937 6.21447C63.2375 6.1117 63.4462 5.93729 63.5928 5.71335C63.7401 5.48942 63.8185 5.22599 63.8185 4.95648C63.8191 4.77819 63.7859 4.60145 63.7201 4.43639C63.6536 4.27133 63.5565 4.12131 63.4336 3.99479C63.3102 3.86833 63.1641 3.76796 63.0031 3.69947C62.8414 3.63098 62.669 3.59573 62.4941 3.59573Z" fill="black"/>
<path d="M78.6933 9.99547C78.5222 9.99663 78.353 9.96312 78.195 9.89696C78.0371 9.83073 77.8936 9.73313 77.7726 9.60983C77.6516 9.48647 77.5564 9.33987 77.4912 9.17856C77.4266 9.01718 77.394 8.84425 77.3953 8.66989C77.3953 8.31596 77.5326 7.97654 77.7776 7.72628C78.0227 7.47607 78.3555 7.33548 78.7021 7.33548C78.8726 7.33432 79.0418 7.36782 79.2003 7.43398C79.3583 7.50021 79.5018 7.59782 79.6228 7.72111C79.7431 7.84447 79.839 7.99107 79.9036 8.15244C79.9687 8.31376 80.0013 8.4867 80.0001 8.66111C80.0001 9.01499 79.8628 9.3544 79.6178 9.60467C79.3721 9.85487 79.0399 9.99547 78.6933 9.99547ZM78.6933 7.46716C78.4595 7.46542 78.2308 7.53468 78.0358 7.66618C77.8409 7.79767 77.6886 7.98538 77.5984 8.20551C77.5081 8.42563 77.4837 8.66821 77.5288 8.90234C77.5739 9.13641 77.6867 9.35156 77.8516 9.5203C78.017 9.68904 78.2276 9.80375 78.457 9.84984C78.6864 9.89599 78.924 9.8714 79.1396 9.77928C79.3552 9.68717 79.5388 9.53166 79.6679 9.33258C79.7964 9.13344 79.8641 8.8997 79.8628 8.66111C79.8641 8.50471 79.8346 8.34965 79.777 8.20486C79.7187 8.06007 79.6334 7.92839 79.5256 7.81736C79.4178 7.70639 79.2893 7.61828 79.1483 7.55818C79.0067 7.49808 78.855 7.46716 78.7021 7.46716H78.6933ZM78.9854 8.80151L79.347 9.32826H79.0374L78.7102 8.84547H78.4269V9.32826H78.1599V7.93245H78.771C79.0888 7.93245 79.3038 8.09925 79.3038 8.3714C79.3056 8.46784 79.2762 8.56229 79.2204 8.64001C79.1646 8.71779 79.085 8.77453 78.9941 8.80151H78.9854ZM78.7622 8.16949H78.4269V8.60844H78.7622C78.934 8.60844 79.0374 8.52943 79.0374 8.38896C79.0374 8.2485 78.9427 8.16949 78.771 8.16949H78.7622Z" fill="black"/>
</svg>
